<svg xmlns="http://www.w3.org/2000/svg" width="21" height="22" viewBox="0 0 21 22">
  <g id="box" transform="translate(21) rotate(180)">
    <path id="Shape" d="M.563-22A.565.565,0,0,0,0-21.435V-6.042a.556.556,0,0,0,.122.348l4.3,5.476A.559.559,0,0,0,4.86,0H16.144a.559.559,0,0,0,.441-.217l4.3-5.476A.527.527,0,0,0,21-6.042V-21.435A.565.565,0,0,0,20.437-22Z" transform="translate(0)" fill="#fff"/>
    <path id="Path" d="M-6.076-.187l3.637-4.272L-.928-2.684a.488.488,0,0,0,.769,0,.719.719,0,0,0,0-.9l-1.9-2.227A.506.506,0,0,0-2.439-6a.514.514,0,0,0-.384.186L-6.841-1.1a.719.719,0,0,0,0,.9A.481.481,0,0,0-6.076-.187Z" transform="translate(13 -11)" fill="#fff"/>
  </g>
</svg>
