<svg id="camera" xmlns="http://www.w3.org/2000/svg" width="62" height="38" viewBox="0 0 62 38">
  <g id="Rectangle_76" data-name="Rectangle 76" fill="#789139" stroke="#f5f5f5" stroke-width="1">
    <rect width="62" height="38" rx="6" stroke="none"/>
    <rect x="0.5" y="0.5" width="61" height="37" rx="5.5" fill="none"/>
  </g>
  <g id="camera_1_" data-name="camera (1)" transform="translate(18.661 -35.96)">
    <g id="Group_352" data-name="Group 352" transform="translate(0 44.8)">
      <g id="Group_351" data-name="Group 351" transform="translate(0)">
        <path id="Path_694" data-name="Path 694" d="M23.534,47.785a2.617,2.617,0,0,0-1.921-.81H17.772v-.046a2.078,2.078,0,0,0-.625-1.5,2.117,2.117,0,0,0-1.5-.625H8.7a2.133,2.133,0,0,0-2.152,2.129v.046H2.731a2.617,2.617,0,0,0-1.921.81A2.751,2.751,0,0,0,0,49.706V61.23a2.617,2.617,0,0,0,.81,1.921,2.751,2.751,0,0,0,1.921.81H21.614a2.617,2.617,0,0,0,1.921-.81,2.751,2.751,0,0,0,.81-1.921V49.706A2.617,2.617,0,0,0,23.534,47.785ZM23.141,61.23h-.023a1.5,1.5,0,0,1-1.5,1.5H2.731a1.5,1.5,0,0,1-1.5-1.5V49.706a1.5,1.5,0,0,1,1.5-1.5H7.2a.622.622,0,0,0,.625-.625v-.671a.871.871,0,0,1,.9-.9h6.919a.871.871,0,0,1,.9.9v.671a.622.622,0,0,0,.625.625h4.466a1.5,1.5,0,0,1,1.5,1.5Z" transform="translate(0 -44.8)" fill="#fff"/>
        <path id="Path_695" data-name="Path 695" d="M117.693,130.8a5.689,5.689,0,1,0,4.027,1.666A5.7,5.7,0,0,0,117.693,130.8Zm3.147,8.863a4.469,4.469,0,0,1-6.294,0,4.424,4.424,0,0,1-1.3-3.147,4.522,4.522,0,0,1,1.3-3.147,4.424,4.424,0,0,1,3.147-1.3,4.522,4.522,0,0,1,3.147,1.3,4.424,4.424,0,0,1,1.3,3.147A4.33,4.33,0,0,1,120.84,139.663Z" transform="translate(-105.521 -125.825)" fill="#fff"/>
        <path id="Path_696" data-name="Path 696" d="M1.134,0A1.134,1.134,0,1,1,0,1.134,1.134,1.134,0,0,1,1.134,0Z" transform="translate(19.276 4.952)" fill="#fff"/>
      </g>
    </g>
  </g>
</svg>
