<svg xmlns="http://www.w3.org/2000/svg" width="16.5" height="11.786" viewBox="0 0 16.5 11.786">
  <g id="close-envelope_1_" data-name="close-envelope (1)" transform="translate(0 -2)">
    <g id="Group_432" data-name="Group 432" transform="translate(0 2)">
      <path id="Path_1007" data-name="Path 1007" d="M8.194,9.271,6.152,7.484l-5.836,5a1.2,1.2,0,0,0,.814.319H15.257a1.186,1.186,0,0,0,.811-.319l-5.833-5Z" transform="translate(0.056 -1.021)" fill="#ffa51d"/>
      <path id="Path_1008" data-name="Path 1008" d="M16.071,2.319A1.187,1.187,0,0,0,15.256,2H1.13a1.182,1.182,0,0,0-.812.322l7.875,6.75Z" transform="translate(0.057 -2)" fill="#ffa51d"/>
      <path id="Path_1009" data-name="Path 1009" d="M0,2.878V12.67l5.7-4.84Z" transform="translate(0 -1.843)" fill="#ffa51d"/>
      <path id="Path_1010" data-name="Path 1010" d="M9.167,7.83l5.7,4.84v-9.8Z" transform="translate(1.637 -1.844)" fill="#ffa51d"/>
    </g>
  </g>
</svg>
