<svg id="exclamation-mark" xmlns="http://www.w3.org/2000/svg" width="18.567" height="18.567" viewBox="0 0 18.567 18.567">
  <path id="Path_1005" data-name="Path 1005" d="M9.284,0a9.284,9.284,0,1,0,9.284,9.284A9.284,9.284,0,0,0,9.284,0Zm0,16.826a7.543,7.543,0,1,1,7.543-7.543A7.543,7.543,0,0,1,9.284,16.826Zm0-12.755c-.665,0-1.168.347-1.168.907V10.12c0,.561.5.907,1.168.907.649,0,1.168-.36,1.168-.907V4.979C10.452,4.432,9.933,4.071,9.284,4.071Zm0,8.113a1.159,1.159,0,1,0,1.158,1.159A1.16,1.16,0,0,0,9.284,12.185Z" fill="#e2574c"/>
</svg>
