<svg xmlns="http://www.w3.org/2000/svg" width="16.21" height="16.2" viewBox="0 0 16.21 16.2">
  <g id="phone-receiver_2_" data-name="phone-receiver (2)" transform="translate(0 -0.188)">
    <g id="Group_431" data-name="Group 431" transform="translate(0 0.188)">
      <path id="Path_1006" data-name="Path 1006" d="M16.2,12.973a.784.784,0,0,1-.24.686L13.68,15.924a1.285,1.285,0,0,1-.4.292,1.666,1.666,0,0,1-.489.154l-.1.009q-.086.009-.223.009a7.911,7.911,0,0,1-1.055-.112,8.015,8.015,0,0,1-1.785-.549,14.981,14.981,0,0,1-2.394-1.313,17.849,17.849,0,0,1-2.849-2.4A18.8,18.8,0,0,1,2.388,9.747a16.139,16.139,0,0,1-1.27-2A10.768,10.768,0,0,1,.4,6.083,8.832,8.832,0,0,1,.072,4.8,4.25,4.25,0,0,1,0,3.946Q.02,3.637.02,3.6a1.668,1.668,0,0,1,.154-.489,1.286,1.286,0,0,1,.292-.4L2.749.428A.756.756,0,0,1,3.3.188a.64.64,0,0,1,.395.129,1.193,1.193,0,0,1,.292.317L5.82,4.118a.835.835,0,0,1,.086.6,1.07,1.07,0,0,1-.292.549l-.841.841a.286.286,0,0,0-.06.112.423.423,0,0,0-.026.129A3.1,3.1,0,0,0,5,7.172a7.562,7.562,0,0,0,.635,1A11.147,11.147,0,0,0,6.85,9.541a11.367,11.367,0,0,0,1.373,1.227,7.928,7.928,0,0,0,1,.644,2.668,2.668,0,0,0,.618.249l.214.043a.409.409,0,0,0,.112-.026.287.287,0,0,0,.112-.06l.978-1a1.051,1.051,0,0,1,.721-.275.9.9,0,0,1,.463.1h.017l3.312,1.956A.863.863,0,0,1,16.2,12.973Z" transform="translate(0 -0.188)" fill="#35cbea"/>
    </g>
  </g>
</svg>
