<svg xmlns="http://www.w3.org/2000/svg" width="20.48" height="20.48" viewBox="0 0 20.48 20.48">
  <g id="phone-call" transform="matrix(0.035, -0.999, 0.999, 0.035, 20.274, -50.886)">
    <path id="Shape" d="M14.3-18.992a10.465,10.465,0,0,0-3.763,1.107,20.1,20.1,0,0,0-6.7,5.223A18.286,18.286,0,0,0,.565-7.232,7.426,7.426,0,0,0,.018-4.073,3.106,3.106,0,0,0,.945-2.094L2.4-.635l.009.009A2.1,2.1,0,0,0,3.861,0,2.025,2.025,0,0,0,5.293-.626c.278-.256.548-.528.8-.792.128-.136.265-.272.4-.4L7.662-2.984a1.947,1.947,0,0,0,0-2.946c-.12-.119-.239-.242-.359-.362-.316-.319-.641-.651-.992-.97A8.652,8.652,0,0,1,7.466-9.075a14.671,14.671,0,0,1,3.518-3.192c.124-.076.269-.149.423-.225.107-.056.219-.111.329-.17l1.351,1.34a2.065,2.065,0,0,0,1.462.656,2,2,0,0,0,1.445-.66l2.347-2.345A2.044,2.044,0,0,0,19-15.131a2.122,2.122,0,0,0-.645-1.473c-.184-.191-.372-.374-.556-.549a9.648,9.648,0,0,1-.748-.77c0-.008-.013-.013-.017-.021A3.227,3.227,0,0,0,14.567-19C14.481-19,14.387-19,14.3-18.992Z" transform="translate(-71.368 1.206)" fill="#fff"/>
    <path id="Path" d="M.467-1.125a5.328,5.328,0,0,0,2.9-1.5,5.357,5.357,0,0,0,1.5-2.9A.564.564,0,0,1,5.429-6a.75.75,0,0,1,.1.008.568.568,0,0,1,.466.656A6.482,6.482,0,0,1,4.173-1.827,6.481,6.481,0,0,1,.664-.008.57.57,0,0,1,.009-.47.561.561,0,0,1,.467-1.125Z" transform="translate(-61.213 -0.919)" fill="#fff"/>
    <path id="Path-2" data-name="Path" d="M8.992-8.375a10.169,10.169,0,0,1-2.856,5.51A10.163,10.163,0,0,1,.628-.008.539.539,0,0,1,.007-.449a.544.544,0,0,1,.445-.625A9.1,9.1,0,0,0,5.375-3.627,9.079,9.079,0,0,0,7.926-8.551.538.538,0,0,1,8.459-9a.715.715,0,0,1,.092.008A.531.531,0,0,1,8.992-8.375Z" transform="translate(-60.162 1.993)" fill="#fff"/>
  </g>
</svg>
