<svg xmlns="http://www.w3.org/2000/svg" width="13.477" height="13.592" viewBox="0 0 13.477 13.592">
  <g id="share_7_" data-name="share (7)" transform="translate(-2.006)">
    <g id="Group_429" data-name="Group 429" transform="translate(2.006)">
      <path id="Path_1001" data-name="Path 1001" d="M13.005,8.639a2.461,2.461,0,0,0-1.935.949L6.864,7.437A2.461,2.461,0,0,0,6.959,6.8,2.44,2.44,0,0,0,6.846,6.1L11.034,3.96a2.466,2.466,0,1,0-.5-1.484,2.45,2.45,0,0,0,.1.643L6.419,5.27a2.475,2.475,0,1,0,.036,3.009l4.186,2.141a2.446,2.446,0,0,0-.113.7,2.477,2.477,0,1,0,2.476-2.477Z" transform="translate(-2.006)" fill="#09c93c"/>
    </g>
  </g>
</svg>
