<svg xmlns="http://www.w3.org/2000/svg" width="16.975" height="16.975" viewBox="0 0 16.975 16.975">
  <g id="smiling-emoticon-square-face_1_" data-name="smiling-emoticon-square-face (1)" opacity="0.53">
    <path id="Path_34" data-name="Path 34" d="M14.492,2.484a8.491,8.491,0,1,0,0,12.008A8.5,8.5,0,0,0,14.492,2.484Zm-.927,11.082a7.182,7.182,0,1,1,0-10.156A7.19,7.19,0,0,1,13.565,13.566ZM5.32,6.189a.992.992,0,1,1,.992.993A.993.993,0,0,1,5.32,6.189Zm4.5,0a.993.993,0,1,1,.993.993A.993.993,0,0,1,9.82,6.189Zm2.346,4.065A3.962,3.962,0,0,1,8.5,12.6a3.935,3.935,0,0,1-3.691-2.353.48.48,0,1,1,.887-.368,2.979,2.979,0,0,0,2.8,1.761,3,3,0,0,0,2.788-1.762.48.48,0,1,1,.881.381Z" transform="translate(0 0)"/>
  </g>
</svg>
