<svg xmlns="http://www.w3.org/2000/svg" width="71.117" height="31" viewBox="0 0 71.117 31">
  <g id="upload" transform="translate(-35 -460.5)">
    <path id="Path_1020" data-name="Path 1020" d="M15.5,0H55.617a15.5,15.5,0,0,1,0,31H15.5a15.5,15.5,0,0,1,0-31Z" transform="translate(35 460.5)" fill="#88a53b"/>
    <g id="upload_1_" data-name="upload (1)" transform="translate(59 435.396)">
      <g id="Group_96" data-name="Group 96" transform="translate(0 43.077)">
        <g id="Group_95" data-name="Group 95">
          <path id="Path_212" data-name="Path 212" d="M19.491,339.95a.509.509,0,0,0-.509.509V342.4a2.039,2.039,0,0,1-2.037,2.037H3.055A2.039,2.039,0,0,1,1.018,342.4v-1.945a.509.509,0,0,0-1.018,0V342.4a3.058,3.058,0,0,0,3.055,3.055h13.89A3.058,3.058,0,0,0,20,342.4v-1.945A.509.509,0,0,0,19.491,339.95Z" transform="translate(0 -339.95)" fill="#fff"/>
        </g>
      </g>
      <g id="Group_98" data-name="Group 98" transform="translate(3.091 45.083)">
        <g id="Group_97" data-name="Group 97">
          <path id="Path_213" data-name="Path 213" d="M92.442,391.3h-12.8a.509.509,0,1,0,0,1.018h12.8a.509.509,0,0,0,0-1.018Z" transform="translate(-79.133 -391.305)" fill="#fff"/>
        </g>
      </g>
      <g id="Group_100" data-name="Group 100" transform="translate(4.717 31.009)">
        <g id="Group_99" data-name="Group 99">
          <path id="Path_214" data-name="Path 214" d="M131.161,35.143l-4.265-3.81a1.272,1.272,0,0,0-1.7,0l-4.265,3.81a.509.509,0,0,0,.678.759l3.925-3.506v9.868a.509.509,0,0,0,1.018,0V32.4l3.925,3.506a.509.509,0,1,0,.678-.759Z" transform="translate(-120.766 -31.009)" fill="#fff"/>
        </g>
      </g>
    </g>
  </g>
</svg>
