<svg xmlns="http://www.w3.org/2000/svg" width="16.16" height="11.896" viewBox="0 0 16.16 11.896">
  <g id="user_14_" data-name="user (14)" transform="translate(0 -64.65)">
    <g id="Group_5" data-name="Group 5" transform="translate(0 64.65)">
      <path id="Path_5" data-name="Path 5" d="M303.633,149.158a13.469,13.469,0,0,0-2.276-1.481v-1.283a1.067,1.067,0,0,0,.333-.775v-1.652a1.818,1.818,0,0,0-1.817-1.817h-.356a1.818,1.818,0,0,0-1.817,1.817v1.652a1.067,1.067,0,0,0,.333.775v1.148a.326.326,0,1,0,.653,0v-1.3a.327.327,0,0,0-.145-.27.416.416,0,0,1-.188-.35v-1.652a1.166,1.166,0,0,1,1.164-1.164h.356a1.166,1.166,0,0,1,1.164,1.164v1.652a.416.416,0,0,1-.188.35.319.319,0,0,0-.145.27v1.6a.4.4,0,0,0,.224.359,12.921,12.921,0,0,1,2.289,1.468.473.473,0,0,1,.171.366v1.134a.327.327,0,0,0,.653,0v-1.134A1.121,1.121,0,0,0,303.633,149.158Z" transform="translate(-287.882 -139.594)" fill="#4d4d4d"/>
      <path id="Path_6" data-name="Path 6" d="M5.758,64.65H5.3a2.259,2.259,0,0,0-2.256,2.256v2.14a1.29,1.29,0,0,0,.432.963V71.77A17.434,17.434,0,0,0,.491,73.7,1.362,1.362,0,0,0,0,74.752v1.468a.325.325,0,0,0,.326.326H10.735a.325.325,0,0,0,.326-.326V74.752a1.352,1.352,0,0,0-.5-1.052A17.225,17.225,0,0,0,7.582,71.77V70.009a1.285,1.285,0,0,0,.432-.963V66.9A2.256,2.256,0,0,0,5.758,64.65Zm1.408,7.638A16.511,16.511,0,0,1,10.148,74.2a.706.706,0,0,1,.257.547v1.141H.653V74.752A.707.707,0,0,1,.91,74.2a16.631,16.631,0,0,1,2.981-1.913.424.424,0,0,0,.237-.379V69.848a.327.327,0,0,0-.145-.27.639.639,0,0,1-.287-.531V66.9a1.6,1.6,0,0,1,1.6-1.6h.462a1.6,1.6,0,0,1,1.6,1.6v2.14a.631.631,0,0,1-.287.531.319.319,0,0,0-.145.27v2.065A.412.412,0,0,0,7.166,72.288Z" transform="translate(0 -64.65)" fill="#2c2f33"/>
    </g>
  </g>
</svg>
